<mxfile host="app.diagrams.net" agent="Mozilla/5.0 (Windows NT 10.0; Win64; x64) AppleWebKit/537.36 (KHTML, like Gecko) Chrome/139.0.0.0 Safari/537.36" version="28.1.0">
  <diagram id="C5RBs43oDa-KdzZeNtuy" name="Page-1">
    <mxGraphModel dx="2505" dy="2043" grid="1" gridSize="10" guides="1" tooltips="1" connect="1" arrows="1" fold="1" page="1" pageScale="1" pageWidth="827" pageHeight="1169" math="0" shadow="0">
      <root>
        <mxCell id="WIyWlLk6GJQsqaUBKTNV-0" />
        <mxCell id="WIyWlLk6GJQsqaUBKTNV-1" parent="WIyWlLk6GJQsqaUBKTNV-0" />
        <mxCell id="aJ0csZWAjKoqi-2T0C5s-0" value="Aluno" style="rounded=0;whiteSpace=wrap;html=1;" vertex="1" parent="WIyWlLk6GJQsqaUBKTNV-1">
          <mxGeometry x="80" y="340" width="120" height="60" as="geometry" />
        </mxCell>
        <mxCell id="aJ0csZWAjKoqi-2T0C5s-2" style="rounded=0;orthogonalLoop=1;jettySize=auto;html=1;entryX=0;entryY=0;entryDx=0;entryDy=0;" edge="1" parent="WIyWlLk6GJQsqaUBKTNV-1" source="aJ0csZWAjKoqi-2T0C5s-1" target="aJ0csZWAjKoqi-2T0C5s-0">
          <mxGeometry relative="1" as="geometry" />
        </mxCell>
        <mxCell id="aJ0csZWAjKoqi-2T0C5s-1" value="matricula" style="ellipse;whiteSpace=wrap;html=1;fontStyle=4" vertex="1" parent="WIyWlLk6GJQsqaUBKTNV-1">
          <mxGeometry x="80" y="150" width="70" height="60" as="geometry" />
        </mxCell>
        <mxCell id="aJ0csZWAjKoqi-2T0C5s-4" style="edgeStyle=none;shape=connector;rounded=0;orthogonalLoop=1;jettySize=auto;html=1;entryX=0;entryY=0.25;entryDx=0;entryDy=0;strokeColor=default;align=center;verticalAlign=middle;fontFamily=Helvetica;fontSize=11;fontColor=default;labelBackgroundColor=default;endArrow=classic;" edge="1" parent="WIyWlLk6GJQsqaUBKTNV-1" source="aJ0csZWAjKoqi-2T0C5s-3" target="aJ0csZWAjKoqi-2T0C5s-0">
          <mxGeometry relative="1" as="geometry" />
        </mxCell>
        <mxCell id="aJ0csZWAjKoqi-2T0C5s-3" value="nome" style="ellipse;whiteSpace=wrap;html=1;fontStyle=0" vertex="1" parent="WIyWlLk6GJQsqaUBKTNV-1">
          <mxGeometry x="20" y="210" width="60" height="50" as="geometry" />
        </mxCell>
        <mxCell id="aJ0csZWAjKoqi-2T0C5s-6" style="edgeStyle=none;shape=connector;rounded=0;orthogonalLoop=1;jettySize=auto;html=1;entryX=0;entryY=0;entryDx=0;entryDy=0;strokeColor=default;align=center;verticalAlign=middle;fontFamily=Helvetica;fontSize=11;fontColor=default;labelBackgroundColor=default;endArrow=classic;" edge="1" parent="WIyWlLk6GJQsqaUBKTNV-1" source="aJ0csZWAjKoqi-2T0C5s-5" target="aJ0csZWAjKoqi-2T0C5s-3">
          <mxGeometry relative="1" as="geometry" />
        </mxCell>
        <mxCell id="aJ0csZWAjKoqi-2T0C5s-5" value="primeiroNome" style="ellipse;whiteSpace=wrap;html=1;fontStyle=0" vertex="1" parent="WIyWlLk6GJQsqaUBKTNV-1">
          <mxGeometry x="-80" y="120" width="90" height="80" as="geometry" />
        </mxCell>
        <mxCell id="aJ0csZWAjKoqi-2T0C5s-8" style="edgeStyle=none;shape=connector;rounded=0;orthogonalLoop=1;jettySize=auto;html=1;entryX=0;entryY=0.5;entryDx=0;entryDy=0;strokeColor=default;align=center;verticalAlign=middle;fontFamily=Helvetica;fontSize=11;fontColor=default;labelBackgroundColor=default;endArrow=classic;" edge="1" parent="WIyWlLk6GJQsqaUBKTNV-1" source="aJ0csZWAjKoqi-2T0C5s-7" target="aJ0csZWAjKoqi-2T0C5s-3">
          <mxGeometry relative="1" as="geometry" />
        </mxCell>
        <mxCell id="aJ0csZWAjKoqi-2T0C5s-7" value="sobrenome" style="ellipse;whiteSpace=wrap;html=1;fontStyle=0" vertex="1" parent="WIyWlLk6GJQsqaUBKTNV-1">
          <mxGeometry x="-110" y="220" width="90" height="80" as="geometry" />
        </mxCell>
        <mxCell id="aJ0csZWAjKoqi-2T0C5s-10" style="edgeStyle=none;shape=connector;rounded=0;orthogonalLoop=1;jettySize=auto;html=1;entryX=0;entryY=0.5;entryDx=0;entryDy=0;strokeColor=default;align=center;verticalAlign=middle;fontFamily=Helvetica;fontSize=11;fontColor=default;labelBackgroundColor=default;endArrow=classic;" edge="1" parent="WIyWlLk6GJQsqaUBKTNV-1" source="aJ0csZWAjKoqi-2T0C5s-9" target="aJ0csZWAjKoqi-2T0C5s-0">
          <mxGeometry relative="1" as="geometry" />
        </mxCell>
        <mxCell id="aJ0csZWAjKoqi-2T0C5s-9" value="dataNascimento" style="ellipse;whiteSpace=wrap;html=1;fontStyle=0" vertex="1" parent="WIyWlLk6GJQsqaUBKTNV-1">
          <mxGeometry x="-100" y="515" width="90" height="70" as="geometry" />
        </mxCell>
        <mxCell id="aJ0csZWAjKoqi-2T0C5s-12" style="edgeStyle=none;shape=connector;rounded=0;orthogonalLoop=1;jettySize=auto;html=1;entryX=0;entryY=1;entryDx=0;entryDy=0;strokeColor=default;align=center;verticalAlign=middle;fontFamily=Helvetica;fontSize=11;fontColor=default;labelBackgroundColor=default;endArrow=classic;" edge="1" parent="WIyWlLk6GJQsqaUBKTNV-1" source="aJ0csZWAjKoqi-2T0C5s-11" target="aJ0csZWAjKoqi-2T0C5s-0">
          <mxGeometry relative="1" as="geometry" />
        </mxCell>
        <mxCell id="aJ0csZWAjKoqi-2T0C5s-11" value="idade" style="ellipse;whiteSpace=wrap;html=1;fontStyle=0;dashed=1;dashPattern=8 8;" vertex="1" parent="WIyWlLk6GJQsqaUBKTNV-1">
          <mxGeometry x="20" y="545" width="90" height="70" as="geometry" />
        </mxCell>
        <mxCell id="aJ0csZWAjKoqi-2T0C5s-13" value="telefone" style="ellipse;shape=doubleEllipse;whiteSpace=wrap;html=1;aspect=fixed;fontFamily=Helvetica;fontSize=11;fontColor=default;labelBackgroundColor=default;" vertex="1" parent="WIyWlLk6GJQsqaUBKTNV-1">
          <mxGeometry x="130" y="545" width="80" height="80" as="geometry" />
        </mxCell>
        <mxCell id="aJ0csZWAjKoqi-2T0C5s-14" style="edgeStyle=none;shape=connector;rounded=0;orthogonalLoop=1;jettySize=auto;html=1;entryX=0.125;entryY=1.05;entryDx=0;entryDy=0;entryPerimeter=0;strokeColor=default;align=center;verticalAlign=middle;fontFamily=Helvetica;fontSize=11;fontColor=default;labelBackgroundColor=default;endArrow=classic;" edge="1" parent="WIyWlLk6GJQsqaUBKTNV-1" source="aJ0csZWAjKoqi-2T0C5s-13" target="aJ0csZWAjKoqi-2T0C5s-0">
          <mxGeometry relative="1" as="geometry" />
        </mxCell>
        <mxCell id="aJ0csZWAjKoqi-2T0C5s-15" value="Turma" style="rounded=0;whiteSpace=wrap;html=1;" vertex="1" parent="WIyWlLk6GJQsqaUBKTNV-1">
          <mxGeometry x="510" y="340" width="120" height="60" as="geometry" />
        </mxCell>
        <mxCell id="aJ0csZWAjKoqi-2T0C5s-16" value="idTurma" style="ellipse;whiteSpace=wrap;html=1;fontStyle=4" vertex="1" parent="WIyWlLk6GJQsqaUBKTNV-1">
          <mxGeometry x="670" y="210" width="70" height="60" as="geometry" />
        </mxCell>
        <mxCell id="aJ0csZWAjKoqi-2T0C5s-17" style="edgeStyle=none;shape=connector;rounded=0;orthogonalLoop=1;jettySize=auto;html=1;entryX=0.925;entryY=0.05;entryDx=0;entryDy=0;entryPerimeter=0;strokeColor=default;align=center;verticalAlign=middle;fontFamily=Helvetica;fontSize=11;fontColor=default;labelBackgroundColor=default;endArrow=classic;" edge="1" parent="WIyWlLk6GJQsqaUBKTNV-1" source="aJ0csZWAjKoqi-2T0C5s-16" target="aJ0csZWAjKoqi-2T0C5s-15">
          <mxGeometry relative="1" as="geometry" />
        </mxCell>
        <mxCell id="aJ0csZWAjKoqi-2T0C5s-18" value="anoLetivo" style="ellipse;whiteSpace=wrap;html=1;fontStyle=0" vertex="1" parent="WIyWlLk6GJQsqaUBKTNV-1">
          <mxGeometry x="690" y="320" width="90" height="70" as="geometry" />
        </mxCell>
        <mxCell id="aJ0csZWAjKoqi-2T0C5s-19" style="edgeStyle=none;shape=connector;rounded=0;orthogonalLoop=1;jettySize=auto;html=1;entryX=0.983;entryY=0.4;entryDx=0;entryDy=0;entryPerimeter=0;strokeColor=default;align=center;verticalAlign=middle;fontFamily=Helvetica;fontSize=11;fontColor=default;labelBackgroundColor=default;endArrow=classic;" edge="1" parent="WIyWlLk6GJQsqaUBKTNV-1" source="aJ0csZWAjKoqi-2T0C5s-18" target="aJ0csZWAjKoqi-2T0C5s-15">
          <mxGeometry relative="1" as="geometry" />
        </mxCell>
        <mxCell id="aJ0csZWAjKoqi-2T0C5s-21" style="edgeStyle=none;shape=connector;rounded=0;orthogonalLoop=1;jettySize=auto;html=1;entryX=1;entryY=1;entryDx=0;entryDy=0;strokeColor=default;align=center;verticalAlign=middle;fontFamily=Helvetica;fontSize=11;fontColor=default;labelBackgroundColor=default;endArrow=classic;" edge="1" parent="WIyWlLk6GJQsqaUBKTNV-1" source="aJ0csZWAjKoqi-2T0C5s-20" target="aJ0csZWAjKoqi-2T0C5s-15">
          <mxGeometry relative="1" as="geometry" />
        </mxCell>
        <mxCell id="aJ0csZWAjKoqi-2T0C5s-20" value="turno" style="ellipse;whiteSpace=wrap;html=1;fontStyle=0" vertex="1" parent="WIyWlLk6GJQsqaUBKTNV-1">
          <mxGeometry x="690" y="420" width="90" height="70" as="geometry" />
        </mxCell>
        <mxCell id="aJ0csZWAjKoqi-2T0C5s-22" value="Professor" style="rounded=0;whiteSpace=wrap;html=1;" vertex="1" parent="WIyWlLk6GJQsqaUBKTNV-1">
          <mxGeometry x="80" y="730" width="120" height="60" as="geometry" />
        </mxCell>
        <mxCell id="aJ0csZWAjKoqi-2T0C5s-24" style="edgeStyle=none;shape=connector;rounded=0;orthogonalLoop=1;jettySize=auto;html=1;entryX=0;entryY=0;entryDx=0;entryDy=0;strokeColor=default;align=center;verticalAlign=middle;fontFamily=Helvetica;fontSize=11;fontColor=default;labelBackgroundColor=default;endArrow=classic;" edge="1" parent="WIyWlLk6GJQsqaUBKTNV-1" source="aJ0csZWAjKoqi-2T0C5s-23" target="aJ0csZWAjKoqi-2T0C5s-22">
          <mxGeometry relative="1" as="geometry" />
        </mxCell>
        <mxCell id="aJ0csZWAjKoqi-2T0C5s-23" value="cpf" style="ellipse;whiteSpace=wrap;html=1;fontStyle=4" vertex="1" parent="WIyWlLk6GJQsqaUBKTNV-1">
          <mxGeometry x="-50" y="660" width="70" height="60" as="geometry" />
        </mxCell>
        <mxCell id="aJ0csZWAjKoqi-2T0C5s-30" style="edgeStyle=none;shape=connector;rounded=0;orthogonalLoop=1;jettySize=auto;html=1;entryX=0;entryY=0.5;entryDx=0;entryDy=0;strokeColor=default;align=center;verticalAlign=middle;fontFamily=Helvetica;fontSize=11;fontColor=default;labelBackgroundColor=default;endArrow=classic;" edge="1" parent="WIyWlLk6GJQsqaUBKTNV-1" source="aJ0csZWAjKoqi-2T0C5s-25" target="aJ0csZWAjKoqi-2T0C5s-22">
          <mxGeometry relative="1" as="geometry" />
        </mxCell>
        <mxCell id="aJ0csZWAjKoqi-2T0C5s-25" value="nome" style="ellipse;whiteSpace=wrap;html=1;fontStyle=0" vertex="1" parent="WIyWlLk6GJQsqaUBKTNV-1">
          <mxGeometry x="-90" y="730" width="60" height="50" as="geometry" />
        </mxCell>
        <mxCell id="aJ0csZWAjKoqi-2T0C5s-26" style="edgeStyle=none;shape=connector;rounded=0;orthogonalLoop=1;jettySize=auto;html=1;entryX=0;entryY=0;entryDx=0;entryDy=0;strokeColor=default;align=center;verticalAlign=middle;fontFamily=Helvetica;fontSize=11;fontColor=default;labelBackgroundColor=default;endArrow=classic;" edge="1" parent="WIyWlLk6GJQsqaUBKTNV-1" source="aJ0csZWAjKoqi-2T0C5s-27" target="aJ0csZWAjKoqi-2T0C5s-25">
          <mxGeometry relative="1" as="geometry" />
        </mxCell>
        <mxCell id="aJ0csZWAjKoqi-2T0C5s-27" value="primeiroNome" style="ellipse;whiteSpace=wrap;html=1;fontStyle=0" vertex="1" parent="WIyWlLk6GJQsqaUBKTNV-1">
          <mxGeometry x="-190" y="640" width="90" height="80" as="geometry" />
        </mxCell>
        <mxCell id="aJ0csZWAjKoqi-2T0C5s-28" style="edgeStyle=none;shape=connector;rounded=0;orthogonalLoop=1;jettySize=auto;html=1;entryX=0;entryY=0.5;entryDx=0;entryDy=0;strokeColor=default;align=center;verticalAlign=middle;fontFamily=Helvetica;fontSize=11;fontColor=default;labelBackgroundColor=default;endArrow=classic;" edge="1" parent="WIyWlLk6GJQsqaUBKTNV-1" source="aJ0csZWAjKoqi-2T0C5s-29" target="aJ0csZWAjKoqi-2T0C5s-25">
          <mxGeometry relative="1" as="geometry" />
        </mxCell>
        <mxCell id="aJ0csZWAjKoqi-2T0C5s-29" value="sobrenome" style="ellipse;whiteSpace=wrap;html=1;fontStyle=0" vertex="1" parent="WIyWlLk6GJQsqaUBKTNV-1">
          <mxGeometry x="-220" y="740" width="90" height="80" as="geometry" />
        </mxCell>
        <mxCell id="aJ0csZWAjKoqi-2T0C5s-32" style="edgeStyle=none;shape=connector;rounded=0;orthogonalLoop=1;jettySize=auto;html=1;entryX=0;entryY=1;entryDx=0;entryDy=0;strokeColor=default;align=center;verticalAlign=middle;fontFamily=Helvetica;fontSize=11;fontColor=default;labelBackgroundColor=default;endArrow=classic;" edge="1" parent="WIyWlLk6GJQsqaUBKTNV-1" source="aJ0csZWAjKoqi-2T0C5s-31" target="aJ0csZWAjKoqi-2T0C5s-22">
          <mxGeometry relative="1" as="geometry" />
        </mxCell>
        <mxCell id="aJ0csZWAjKoqi-2T0C5s-31" value="especialidade" style="ellipse;shape=doubleEllipse;whiteSpace=wrap;html=1;aspect=fixed;fontFamily=Helvetica;fontSize=11;fontColor=default;labelBackgroundColor=default;" vertex="1" parent="WIyWlLk6GJQsqaUBKTNV-1">
          <mxGeometry x="-110" y="830" width="80" height="80" as="geometry" />
        </mxCell>
        <mxCell id="aJ0csZWAjKoqi-2T0C5s-33" value="Disciplina" style="rounded=0;whiteSpace=wrap;html=1;" vertex="1" parent="WIyWlLk6GJQsqaUBKTNV-1">
          <mxGeometry x="510" y="730" width="120" height="60" as="geometry" />
        </mxCell>
        <mxCell id="aJ0csZWAjKoqi-2T0C5s-34" value="idDisciplina" style="ellipse;whiteSpace=wrap;html=1;fontStyle=4" vertex="1" parent="WIyWlLk6GJQsqaUBKTNV-1">
          <mxGeometry x="680" y="650" width="70" height="60" as="geometry" />
        </mxCell>
        <mxCell id="aJ0csZWAjKoqi-2T0C5s-35" style="edgeStyle=none;shape=connector;rounded=0;orthogonalLoop=1;jettySize=auto;html=1;entryX=0.944;entryY=0.071;entryDx=0;entryDy=0;entryPerimeter=0;strokeColor=default;align=center;verticalAlign=middle;fontFamily=Helvetica;fontSize=11;fontColor=default;labelBackgroundColor=default;endArrow=classic;" edge="1" parent="WIyWlLk6GJQsqaUBKTNV-1" source="aJ0csZWAjKoqi-2T0C5s-34" target="aJ0csZWAjKoqi-2T0C5s-33">
          <mxGeometry relative="1" as="geometry" />
        </mxCell>
        <mxCell id="aJ0csZWAjKoqi-2T0C5s-37" style="edgeStyle=none;shape=connector;rounded=0;orthogonalLoop=1;jettySize=auto;html=1;strokeColor=default;align=center;verticalAlign=middle;fontFamily=Helvetica;fontSize=11;fontColor=default;labelBackgroundColor=default;endArrow=classic;" edge="1" parent="WIyWlLk6GJQsqaUBKTNV-1" source="aJ0csZWAjKoqi-2T0C5s-36" target="aJ0csZWAjKoqi-2T0C5s-33">
          <mxGeometry relative="1" as="geometry" />
        </mxCell>
        <mxCell id="aJ0csZWAjKoqi-2T0C5s-36" value="nome" style="ellipse;whiteSpace=wrap;html=1;fontStyle=0" vertex="1" parent="WIyWlLk6GJQsqaUBKTNV-1">
          <mxGeometry x="690" y="740" width="90" height="70" as="geometry" />
        </mxCell>
        <mxCell id="aJ0csZWAjKoqi-2T0C5s-39" style="edgeStyle=none;shape=connector;rounded=0;orthogonalLoop=1;jettySize=auto;html=1;entryX=1;entryY=1;entryDx=0;entryDy=0;strokeColor=default;align=center;verticalAlign=middle;fontFamily=Helvetica;fontSize=11;fontColor=default;labelBackgroundColor=default;endArrow=classic;" edge="1" parent="WIyWlLk6GJQsqaUBKTNV-1" source="aJ0csZWAjKoqi-2T0C5s-38" target="aJ0csZWAjKoqi-2T0C5s-33">
          <mxGeometry relative="1" as="geometry" />
        </mxCell>
        <mxCell id="aJ0csZWAjKoqi-2T0C5s-38" value="cargaHoraria" style="ellipse;whiteSpace=wrap;html=1;fontStyle=0" vertex="1" parent="WIyWlLk6GJQsqaUBKTNV-1">
          <mxGeometry x="690" y="840" width="90" height="70" as="geometry" />
        </mxCell>
        <mxCell id="aJ0csZWAjKoqi-2T0C5s-40" value="Nota" style="rounded=0;whiteSpace=wrap;html=1;" vertex="1" parent="WIyWlLk6GJQsqaUBKTNV-1">
          <mxGeometry x="300" y="-110" width="120" height="60" as="geometry" />
        </mxCell>
        <mxCell id="aJ0csZWAjKoqi-2T0C5s-41" value="idNota" style="ellipse;whiteSpace=wrap;html=1;fontStyle=4" vertex="1" parent="WIyWlLk6GJQsqaUBKTNV-1">
          <mxGeometry x="180" y="-160" width="70" height="60" as="geometry" />
        </mxCell>
        <mxCell id="aJ0csZWAjKoqi-2T0C5s-42" style="edgeStyle=none;shape=connector;rounded=0;orthogonalLoop=1;jettySize=auto;html=1;entryX=0.135;entryY=0.051;entryDx=0;entryDy=0;entryPerimeter=0;strokeColor=default;align=center;verticalAlign=middle;fontFamily=Helvetica;fontSize=11;fontColor=default;labelBackgroundColor=default;endArrow=classic;" edge="1" parent="WIyWlLk6GJQsqaUBKTNV-1" source="aJ0csZWAjKoqi-2T0C5s-41" target="aJ0csZWAjKoqi-2T0C5s-40">
          <mxGeometry relative="1" as="geometry" />
        </mxCell>
        <mxCell id="aJ0csZWAjKoqi-2T0C5s-46" style="edgeStyle=none;shape=connector;rounded=0;orthogonalLoop=1;jettySize=auto;html=1;strokeColor=default;align=center;verticalAlign=middle;fontFamily=Helvetica;fontSize=11;fontColor=default;labelBackgroundColor=default;endArrow=classic;" edge="1" parent="WIyWlLk6GJQsqaUBKTNV-1" source="aJ0csZWAjKoqi-2T0C5s-43" target="aJ0csZWAjKoqi-2T0C5s-40">
          <mxGeometry relative="1" as="geometry" />
        </mxCell>
        <mxCell id="aJ0csZWAjKoqi-2T0C5s-43" value="valor" style="ellipse;whiteSpace=wrap;html=1;fontStyle=0" vertex="1" parent="WIyWlLk6GJQsqaUBKTNV-1">
          <mxGeometry x="130" y="-105" width="60" height="50" as="geometry" />
        </mxCell>
        <mxCell id="aJ0csZWAjKoqi-2T0C5s-44" value="dataRegistro" style="ellipse;whiteSpace=wrap;html=1;fontStyle=0" vertex="1" parent="WIyWlLk6GJQsqaUBKTNV-1">
          <mxGeometry x="140" y="-50" width="80" height="70" as="geometry" />
        </mxCell>
        <mxCell id="aJ0csZWAjKoqi-2T0C5s-45" style="edgeStyle=none;shape=connector;rounded=0;orthogonalLoop=1;jettySize=auto;html=1;entryX=0.083;entryY=1;entryDx=0;entryDy=0;entryPerimeter=0;strokeColor=default;align=center;verticalAlign=middle;fontFamily=Helvetica;fontSize=11;fontColor=default;labelBackgroundColor=default;endArrow=classic;" edge="1" parent="WIyWlLk6GJQsqaUBKTNV-1" source="aJ0csZWAjKoqi-2T0C5s-44" target="aJ0csZWAjKoqi-2T0C5s-40">
          <mxGeometry relative="1" as="geometry" />
        </mxCell>
        <mxCell id="aJ0csZWAjKoqi-2T0C5s-47" value="Funcionario" style="rounded=0;whiteSpace=wrap;html=1;" vertex="1" parent="WIyWlLk6GJQsqaUBKTNV-1">
          <mxGeometry x="520" y="990" width="120" height="60" as="geometry" />
        </mxCell>
        <mxCell id="aJ0csZWAjKoqi-2T0C5s-49" style="edgeStyle=none;shape=connector;rounded=0;orthogonalLoop=1;jettySize=auto;html=1;strokeColor=default;align=center;verticalAlign=middle;fontFamily=Helvetica;fontSize=11;fontColor=default;labelBackgroundColor=default;endArrow=classic;" edge="1" parent="WIyWlLk6GJQsqaUBKTNV-1" source="aJ0csZWAjKoqi-2T0C5s-48" target="aJ0csZWAjKoqi-2T0C5s-47">
          <mxGeometry relative="1" as="geometry" />
        </mxCell>
        <mxCell id="aJ0csZWAjKoqi-2T0C5s-48" value="cpf" style="ellipse;whiteSpace=wrap;html=1;fontStyle=4" vertex="1" parent="WIyWlLk6GJQsqaUBKTNV-1">
          <mxGeometry x="710" y="980" width="70" height="60" as="geometry" />
        </mxCell>
        <mxCell id="aJ0csZWAjKoqi-2T0C5s-50" value="nome" style="ellipse;whiteSpace=wrap;html=1;fontStyle=0" vertex="1" parent="WIyWlLk6GJQsqaUBKTNV-1">
          <mxGeometry x="738.52" y="1129.28" width="60" height="50" as="geometry" />
        </mxCell>
        <mxCell id="aJ0csZWAjKoqi-2T0C5s-51" style="edgeStyle=none;shape=connector;rounded=0;orthogonalLoop=1;jettySize=auto;html=1;entryX=0.981;entryY=0.358;entryDx=0;entryDy=0;strokeColor=default;align=center;verticalAlign=middle;fontFamily=Helvetica;fontSize=11;fontColor=default;labelBackgroundColor=default;endArrow=classic;entryPerimeter=0;" edge="1" parent="WIyWlLk6GJQsqaUBKTNV-1" source="aJ0csZWAjKoqi-2T0C5s-52" target="aJ0csZWAjKoqi-2T0C5s-50">
          <mxGeometry relative="1" as="geometry" />
        </mxCell>
        <mxCell id="aJ0csZWAjKoqi-2T0C5s-52" value="primeiroNome" style="ellipse;whiteSpace=wrap;html=1;fontStyle=0" vertex="1" parent="WIyWlLk6GJQsqaUBKTNV-1">
          <mxGeometry x="838.52" y="1089.28" width="90" height="80" as="geometry" />
        </mxCell>
        <mxCell id="aJ0csZWAjKoqi-2T0C5s-53" style="edgeStyle=none;shape=connector;rounded=0;orthogonalLoop=1;jettySize=auto;html=1;strokeColor=default;align=center;verticalAlign=middle;fontFamily=Helvetica;fontSize=11;fontColor=default;labelBackgroundColor=default;endArrow=classic;" edge="1" parent="WIyWlLk6GJQsqaUBKTNV-1" source="aJ0csZWAjKoqi-2T0C5s-54">
          <mxGeometry relative="1" as="geometry">
            <mxPoint x="780" y="1180" as="targetPoint" />
          </mxGeometry>
        </mxCell>
        <mxCell id="aJ0csZWAjKoqi-2T0C5s-54" value="sobrenome" style="ellipse;whiteSpace=wrap;html=1;fontStyle=0" vertex="1" parent="WIyWlLk6GJQsqaUBKTNV-1">
          <mxGeometry x="808.52" y="1189.28" width="90" height="80" as="geometry" />
        </mxCell>
        <mxCell id="aJ0csZWAjKoqi-2T0C5s-55" style="edgeStyle=none;shape=connector;rounded=0;orthogonalLoop=1;jettySize=auto;html=1;entryX=1;entryY=1;entryDx=0;entryDy=0;strokeColor=default;align=center;verticalAlign=middle;fontFamily=Helvetica;fontSize=11;fontColor=default;labelBackgroundColor=default;endArrow=classic;" edge="1" parent="WIyWlLk6GJQsqaUBKTNV-1" source="aJ0csZWAjKoqi-2T0C5s-50" target="aJ0csZWAjKoqi-2T0C5s-47">
          <mxGeometry relative="1" as="geometry">
            <mxPoint x="730" y="1070" as="targetPoint" />
          </mxGeometry>
        </mxCell>
        <mxCell id="aJ0csZWAjKoqi-2T0C5s-57" value="salario&lt;span style=&quot;color: rgba(0, 0, 0, 0); font-family: monospace; font-size: 0px; text-align: start; text-wrap-mode: nowrap;&quot;&gt;%3CmxGraphModel%3E%3Croot%3E%3CmxCell%20id%3D%220%22%2F%3E%3CmxCell%20id%3D%221%22%20parent%3D%220%22%2F%3E%3CmxCell%20id%3D%222%22%20value%3D%22nome%22%20style%3D%22ellipse%3BwhiteSpace%3Dwrap%3Bhtml%3D1%3BfontStyle%3D0%22%20vertex%3D%221%22%20parent%3D%221%22%3E%3CmxGeometry%20x%3D%22738.52%22%20y%3D%221129.28%22%20width%3D%2260%22%20height%3D%2250%22%20as%3D%22geometry%22%2F%3E%3C%2FmxCell%3E%3C%2Froot%3E%3C%2FmxGraphModel%3E&lt;/span&gt;" style="ellipse;whiteSpace=wrap;html=1;fontStyle=0" vertex="1" parent="WIyWlLk6GJQsqaUBKTNV-1">
          <mxGeometry x="630" y="1210" width="60" height="50" as="geometry" />
        </mxCell>
        <mxCell id="aJ0csZWAjKoqi-2T0C5s-58" value="cargo" style="ellipse;whiteSpace=wrap;html=1;fontStyle=0" vertex="1" parent="WIyWlLk6GJQsqaUBKTNV-1">
          <mxGeometry x="660" y="1150" width="60" height="50" as="geometry" />
        </mxCell>
        <mxCell id="aJ0csZWAjKoqi-2T0C5s-59" style="edgeStyle=none;shape=connector;rounded=0;orthogonalLoop=1;jettySize=auto;html=1;entryX=0.87;entryY=1.031;entryDx=0;entryDy=0;entryPerimeter=0;strokeColor=default;align=center;verticalAlign=middle;fontFamily=Helvetica;fontSize=11;fontColor=default;labelBackgroundColor=default;endArrow=classic;" edge="1" parent="WIyWlLk6GJQsqaUBKTNV-1" source="aJ0csZWAjKoqi-2T0C5s-58" target="aJ0csZWAjKoqi-2T0C5s-47">
          <mxGeometry relative="1" as="geometry" />
        </mxCell>
        <mxCell id="aJ0csZWAjKoqi-2T0C5s-60" style="edgeStyle=none;shape=connector;rounded=0;orthogonalLoop=1;jettySize=auto;html=1;entryX=0.674;entryY=0.953;entryDx=0;entryDy=0;entryPerimeter=0;strokeColor=default;align=center;verticalAlign=middle;fontFamily=Helvetica;fontSize=11;fontColor=default;labelBackgroundColor=default;endArrow=classic;" edge="1" parent="WIyWlLk6GJQsqaUBKTNV-1" source="aJ0csZWAjKoqi-2T0C5s-57" target="aJ0csZWAjKoqi-2T0C5s-47">
          <mxGeometry relative="1" as="geometry" />
        </mxCell>
        <mxCell id="aJ0csZWAjKoqi-2T0C5s-62" style="edgeStyle=none;shape=connector;rounded=0;orthogonalLoop=1;jettySize=auto;html=1;strokeColor=default;align=center;verticalAlign=middle;fontFamily=Helvetica;fontSize=11;fontColor=default;labelBackgroundColor=default;endArrow=none;endFill=0;" edge="1" parent="WIyWlLk6GJQsqaUBKTNV-1" source="aJ0csZWAjKoqi-2T0C5s-61" target="aJ0csZWAjKoqi-2T0C5s-0">
          <mxGeometry relative="1" as="geometry" />
        </mxCell>
        <mxCell id="aJ0csZWAjKoqi-2T0C5s-63" style="edgeStyle=none;shape=connector;rounded=0;orthogonalLoop=1;jettySize=auto;html=1;entryX=0;entryY=0.5;entryDx=0;entryDy=0;strokeColor=default;align=center;verticalAlign=middle;fontFamily=Helvetica;fontSize=11;fontColor=default;labelBackgroundColor=default;endArrow=none;endFill=0;" edge="1" parent="WIyWlLk6GJQsqaUBKTNV-1" source="aJ0csZWAjKoqi-2T0C5s-61" target="aJ0csZWAjKoqi-2T0C5s-15">
          <mxGeometry relative="1" as="geometry" />
        </mxCell>
        <mxCell id="aJ0csZWAjKoqi-2T0C5s-61" value="matriculado em" style="html=1;whiteSpace=wrap;aspect=fixed;shape=isoRectangle;fontFamily=Helvetica;fontSize=11;fontColor=default;labelBackgroundColor=default;" vertex="1" parent="WIyWlLk6GJQsqaUBKTNV-1">
          <mxGeometry x="290" y="320" width="150" height="90" as="geometry" />
        </mxCell>
        <mxCell id="aJ0csZWAjKoqi-2T0C5s-64" value="N" style="text;html=1;align=center;verticalAlign=middle;resizable=0;points=[];autosize=1;strokeColor=none;fillColor=none;fontFamily=Helvetica;fontSize=11;fontColor=default;labelBackgroundColor=default;" vertex="1" parent="WIyWlLk6GJQsqaUBKTNV-1">
          <mxGeometry x="255" y="338" width="30" height="30" as="geometry" />
        </mxCell>
        <mxCell id="aJ0csZWAjKoqi-2T0C5s-65" value="1" style="text;html=1;align=center;verticalAlign=middle;resizable=0;points=[];autosize=1;strokeColor=none;fillColor=none;fontFamily=Helvetica;fontSize=11;fontColor=default;labelBackgroundColor=default;" vertex="1" parent="WIyWlLk6GJQsqaUBKTNV-1">
          <mxGeometry x="435" y="338" width="30" height="30" as="geometry" />
        </mxCell>
        <mxCell id="aJ0csZWAjKoqi-2T0C5s-70" style="edgeStyle=none;shape=connector;rounded=0;orthogonalLoop=1;jettySize=auto;html=1;entryX=0;entryY=0.5;entryDx=0;entryDy=0;strokeColor=default;align=center;verticalAlign=middle;fontFamily=Helvetica;fontSize=11;fontColor=default;labelBackgroundColor=default;endArrow=none;endFill=0;" edge="1" parent="WIyWlLk6GJQsqaUBKTNV-1" source="aJ0csZWAjKoqi-2T0C5s-66" target="aJ0csZWAjKoqi-2T0C5s-33">
          <mxGeometry relative="1" as="geometry" />
        </mxCell>
        <mxCell id="aJ0csZWAjKoqi-2T0C5s-71" style="edgeStyle=none;shape=connector;rounded=0;orthogonalLoop=1;jettySize=auto;html=1;entryX=1;entryY=0.5;entryDx=0;entryDy=0;strokeColor=default;align=center;verticalAlign=middle;fontFamily=Helvetica;fontSize=11;fontColor=default;labelBackgroundColor=default;endArrow=none;endFill=0;" edge="1" parent="WIyWlLk6GJQsqaUBKTNV-1" source="aJ0csZWAjKoqi-2T0C5s-66" target="aJ0csZWAjKoqi-2T0C5s-22">
          <mxGeometry relative="1" as="geometry" />
        </mxCell>
        <mxCell id="aJ0csZWAjKoqi-2T0C5s-66" value="Ministra" style="html=1;whiteSpace=wrap;aspect=fixed;shape=isoRectangle;fontFamily=Helvetica;fontSize=11;fontColor=default;labelBackgroundColor=default;" vertex="1" parent="WIyWlLk6GJQsqaUBKTNV-1">
          <mxGeometry x="285" y="710" width="150" height="90" as="geometry" />
        </mxCell>
        <mxCell id="aJ0csZWAjKoqi-2T0C5s-67" value="N" style="text;html=1;align=center;verticalAlign=middle;resizable=0;points=[];autosize=1;strokeColor=none;fillColor=none;fontFamily=Helvetica;fontSize=11;fontColor=default;labelBackgroundColor=default;" vertex="1" parent="WIyWlLk6GJQsqaUBKTNV-1">
          <mxGeometry x="250" y="728" width="30" height="30" as="geometry" />
        </mxCell>
        <mxCell id="aJ0csZWAjKoqi-2T0C5s-68" value="N" style="text;html=1;align=center;verticalAlign=middle;resizable=0;points=[];autosize=1;strokeColor=none;fillColor=none;fontFamily=Helvetica;fontSize=11;fontColor=default;labelBackgroundColor=default;" vertex="1" parent="WIyWlLk6GJQsqaUBKTNV-1">
          <mxGeometry x="430" y="728" width="30" height="30" as="geometry" />
        </mxCell>
        <mxCell id="aJ0csZWAjKoqi-2T0C5s-76" style="edgeStyle=none;shape=connector;rounded=0;orthogonalLoop=1;jettySize=auto;html=1;entryX=0.25;entryY=0;entryDx=0;entryDy=0;strokeColor=default;align=center;verticalAlign=middle;fontFamily=Helvetica;fontSize=11;fontColor=default;labelBackgroundColor=default;endArrow=none;endFill=0;" edge="1" parent="WIyWlLk6GJQsqaUBKTNV-1" source="aJ0csZWAjKoqi-2T0C5s-72" target="aJ0csZWAjKoqi-2T0C5s-15">
          <mxGeometry relative="1" as="geometry" />
        </mxCell>
        <mxCell id="aJ0csZWAjKoqi-2T0C5s-77" style="edgeStyle=none;shape=connector;rounded=0;orthogonalLoop=1;jettySize=auto;html=1;entryX=0.5;entryY=1;entryDx=0;entryDy=0;strokeColor=default;align=center;verticalAlign=middle;fontFamily=Helvetica;fontSize=11;fontColor=default;labelBackgroundColor=default;endArrow=none;endFill=0;" edge="1" parent="WIyWlLk6GJQsqaUBKTNV-1" source="aJ0csZWAjKoqi-2T0C5s-72" target="aJ0csZWAjKoqi-2T0C5s-40">
          <mxGeometry relative="1" as="geometry" />
        </mxCell>
        <mxCell id="aJ0csZWAjKoqi-2T0C5s-72" value="Recebe" style="html=1;whiteSpace=wrap;aspect=fixed;shape=isoRectangle;fontFamily=Helvetica;fontSize=11;fontColor=default;labelBackgroundColor=default;" vertex="1" parent="WIyWlLk6GJQsqaUBKTNV-1">
          <mxGeometry x="285" y="90" width="150" height="90" as="geometry" />
        </mxCell>
        <mxCell id="aJ0csZWAjKoqi-2T0C5s-73" value="1" style="text;html=1;align=center;verticalAlign=middle;resizable=0;points=[];autosize=1;strokeColor=none;fillColor=none;fontFamily=Helvetica;fontSize=11;fontColor=default;labelBackgroundColor=default;" vertex="1" parent="WIyWlLk6GJQsqaUBKTNV-1">
          <mxGeometry x="260" y="160" width="30" height="30" as="geometry" />
        </mxCell>
        <mxCell id="aJ0csZWAjKoqi-2T0C5s-74" value="1" style="text;html=1;align=center;verticalAlign=middle;resizable=0;points=[];autosize=1;strokeColor=none;fillColor=none;fontFamily=Helvetica;fontSize=11;fontColor=default;labelBackgroundColor=default;" vertex="1" parent="WIyWlLk6GJQsqaUBKTNV-1">
          <mxGeometry x="410" y="160" width="30" height="30" as="geometry" />
        </mxCell>
        <mxCell id="aJ0csZWAjKoqi-2T0C5s-75" style="edgeStyle=none;shape=connector;rounded=0;orthogonalLoop=1;jettySize=auto;html=1;entryX=0.664;entryY=0.009;entryDx=0;entryDy=0;entryPerimeter=0;strokeColor=default;align=center;verticalAlign=middle;fontFamily=Helvetica;fontSize=11;fontColor=default;labelBackgroundColor=default;endArrow=none;endFill=0;" edge="1" parent="WIyWlLk6GJQsqaUBKTNV-1" source="aJ0csZWAjKoqi-2T0C5s-72" target="aJ0csZWAjKoqi-2T0C5s-0">
          <mxGeometry relative="1" as="geometry" />
        </mxCell>
        <mxCell id="aJ0csZWAjKoqi-2T0C5s-78" value="N" style="text;html=1;align=center;verticalAlign=middle;resizable=0;points=[];autosize=1;strokeColor=none;fillColor=none;fontFamily=Helvetica;fontSize=11;fontColor=default;labelBackgroundColor=default;" vertex="1" parent="WIyWlLk6GJQsqaUBKTNV-1">
          <mxGeometry x="320" y="60" width="30" height="30" as="geometry" />
        </mxCell>
        <mxCell id="aJ0csZWAjKoqi-2T0C5s-79" value="N" style="text;html=1;align=center;verticalAlign=middle;resizable=0;points=[];autosize=1;strokeColor=none;fillColor=none;fontFamily=Helvetica;fontSize=11;fontColor=default;labelBackgroundColor=default;" vertex="1" parent="WIyWlLk6GJQsqaUBKTNV-1">
          <mxGeometry x="370" y="60" width="30" height="30" as="geometry" />
        </mxCell>
        <mxCell id="aJ0csZWAjKoqi-2T0C5s-80" value="CarteiraEstudantil" style="rounded=0;whiteSpace=wrap;html=1;" vertex="1" parent="WIyWlLk6GJQsqaUBKTNV-1">
          <mxGeometry x="-440" y="340" width="120" height="60" as="geometry" />
        </mxCell>
        <mxCell id="aJ0csZWAjKoqi-2T0C5s-82" style="edgeStyle=none;shape=connector;rounded=0;orthogonalLoop=1;jettySize=auto;html=1;entryX=0;entryY=0.5;entryDx=0;entryDy=0;strokeColor=default;align=center;verticalAlign=middle;fontFamily=Helvetica;fontSize=11;fontColor=default;labelBackgroundColor=default;endArrow=none;endFill=0;" edge="1" parent="WIyWlLk6GJQsqaUBKTNV-1" source="aJ0csZWAjKoqi-2T0C5s-81" target="aJ0csZWAjKoqi-2T0C5s-0">
          <mxGeometry relative="1" as="geometry" />
        </mxCell>
        <mxCell id="aJ0csZWAjKoqi-2T0C5s-83" style="edgeStyle=none;shape=connector;rounded=0;orthogonalLoop=1;jettySize=auto;html=1;strokeColor=default;align=center;verticalAlign=middle;fontFamily=Helvetica;fontSize=11;fontColor=default;labelBackgroundColor=default;endArrow=none;endFill=0;" edge="1" parent="WIyWlLk6GJQsqaUBKTNV-1" source="aJ0csZWAjKoqi-2T0C5s-81" target="aJ0csZWAjKoqi-2T0C5s-80">
          <mxGeometry relative="1" as="geometry" />
        </mxCell>
        <mxCell id="aJ0csZWAjKoqi-2T0C5s-81" value="possui" style="html=1;whiteSpace=wrap;aspect=fixed;shape=isoRectangle;fontFamily=Helvetica;fontSize=11;fontColor=default;labelBackgroundColor=default;" vertex="1" parent="WIyWlLk6GJQsqaUBKTNV-1">
          <mxGeometry x="-200" y="325" width="150" height="90" as="geometry" />
        </mxCell>
        <mxCell id="aJ0csZWAjKoqi-2T0C5s-84" value="1" style="text;html=1;align=center;verticalAlign=middle;resizable=0;points=[];autosize=1;strokeColor=none;fillColor=none;fontFamily=Helvetica;fontSize=11;fontColor=default;labelBackgroundColor=default;" vertex="1" parent="WIyWlLk6GJQsqaUBKTNV-1">
          <mxGeometry x="-50" y="340" width="30" height="30" as="geometry" />
        </mxCell>
        <mxCell id="aJ0csZWAjKoqi-2T0C5s-85" value="1" style="text;html=1;align=center;verticalAlign=middle;resizable=0;points=[];autosize=1;strokeColor=none;fillColor=none;fontFamily=Helvetica;fontSize=11;fontColor=default;labelBackgroundColor=default;" vertex="1" parent="WIyWlLk6GJQsqaUBKTNV-1">
          <mxGeometry x="-230" y="350" width="30" height="30" as="geometry" />
        </mxCell>
        <mxCell id="aJ0csZWAjKoqi-2T0C5s-87" style="edgeStyle=none;shape=connector;rounded=0;orthogonalLoop=1;jettySize=auto;html=1;entryX=0;entryY=0;entryDx=0;entryDy=0;strokeColor=default;align=center;verticalAlign=middle;fontFamily=Helvetica;fontSize=11;fontColor=default;labelBackgroundColor=default;endArrow=none;endFill=0;" edge="1" parent="WIyWlLk6GJQsqaUBKTNV-1" source="aJ0csZWAjKoqi-2T0C5s-86" target="aJ0csZWAjKoqi-2T0C5s-80">
          <mxGeometry relative="1" as="geometry" />
        </mxCell>
        <mxCell id="aJ0csZWAjKoqi-2T0C5s-86" value="idCarteira" style="ellipse;whiteSpace=wrap;html=1;fontStyle=4" vertex="1" parent="WIyWlLk6GJQsqaUBKTNV-1">
          <mxGeometry x="-570" y="230" width="70" height="60" as="geometry" />
        </mxCell>
        <mxCell id="aJ0csZWAjKoqi-2T0C5s-91" style="edgeStyle=none;shape=connector;rounded=0;orthogonalLoop=1;jettySize=auto;html=1;entryX=0;entryY=0.5;entryDx=0;entryDy=0;strokeColor=default;align=center;verticalAlign=middle;fontFamily=Helvetica;fontSize=11;fontColor=default;labelBackgroundColor=default;endArrow=none;endFill=0;" edge="1" parent="WIyWlLk6GJQsqaUBKTNV-1" source="aJ0csZWAjKoqi-2T0C5s-88" target="aJ0csZWAjKoqi-2T0C5s-80">
          <mxGeometry relative="1" as="geometry" />
        </mxCell>
        <mxCell id="aJ0csZWAjKoqi-2T0C5s-88" value="dataEmissao" style="ellipse;whiteSpace=wrap;html=1;fontStyle=0" vertex="1" parent="WIyWlLk6GJQsqaUBKTNV-1">
          <mxGeometry x="-650" y="325" width="100" height="75" as="geometry" />
        </mxCell>
        <mxCell id="aJ0csZWAjKoqi-2T0C5s-90" style="edgeStyle=none;shape=connector;rounded=0;orthogonalLoop=1;jettySize=auto;html=1;entryX=0;entryY=1;entryDx=0;entryDy=0;strokeColor=default;align=center;verticalAlign=middle;fontFamily=Helvetica;fontSize=11;fontColor=default;labelBackgroundColor=default;endArrow=none;endFill=0;" edge="1" parent="WIyWlLk6GJQsqaUBKTNV-1" source="aJ0csZWAjKoqi-2T0C5s-89" target="aJ0csZWAjKoqi-2T0C5s-80">
          <mxGeometry relative="1" as="geometry" />
        </mxCell>
        <mxCell id="aJ0csZWAjKoqi-2T0C5s-89" value="dataValidade" style="ellipse;whiteSpace=wrap;html=1;fontStyle=0" vertex="1" parent="WIyWlLk6GJQsqaUBKTNV-1">
          <mxGeometry x="-650" y="420" width="100" height="75" as="geometry" />
        </mxCell>
        <mxCell id="aJ0csZWAjKoqi-2T0C5s-93" value="Departamento" style="rounded=0;whiteSpace=wrap;html=1;" vertex="1" parent="WIyWlLk6GJQsqaUBKTNV-1">
          <mxGeometry x="80" y="990" width="120" height="60" as="geometry" />
        </mxCell>
        <mxCell id="aJ0csZWAjKoqi-2T0C5s-95" style="edgeStyle=none;shape=connector;rounded=0;orthogonalLoop=1;jettySize=auto;html=1;entryX=1;entryY=0.5;entryDx=0;entryDy=0;strokeColor=default;align=center;verticalAlign=middle;fontFamily=Helvetica;fontSize=11;fontColor=default;labelBackgroundColor=default;endArrow=none;endFill=0;" edge="1" parent="WIyWlLk6GJQsqaUBKTNV-1" source="aJ0csZWAjKoqi-2T0C5s-94" target="aJ0csZWAjKoqi-2T0C5s-93">
          <mxGeometry relative="1" as="geometry" />
        </mxCell>
        <mxCell id="aJ0csZWAjKoqi-2T0C5s-96" style="edgeStyle=none;shape=connector;rounded=0;orthogonalLoop=1;jettySize=auto;html=1;entryX=0;entryY=0.5;entryDx=0;entryDy=0;strokeColor=default;align=center;verticalAlign=middle;fontFamily=Helvetica;fontSize=11;fontColor=default;labelBackgroundColor=default;endArrow=none;endFill=0;" edge="1" parent="WIyWlLk6GJQsqaUBKTNV-1" source="aJ0csZWAjKoqi-2T0C5s-94" target="aJ0csZWAjKoqi-2T0C5s-47">
          <mxGeometry relative="1" as="geometry" />
        </mxCell>
        <mxCell id="aJ0csZWAjKoqi-2T0C5s-94" value="Possui" style="html=1;whiteSpace=wrap;aspect=fixed;shape=isoRectangle;fontFamily=Helvetica;fontSize=11;fontColor=default;labelBackgroundColor=default;" vertex="1" parent="WIyWlLk6GJQsqaUBKTNV-1">
          <mxGeometry x="280" y="975" width="150" height="90" as="geometry" />
        </mxCell>
        <mxCell id="aJ0csZWAjKoqi-2T0C5s-97" value="1" style="text;html=1;align=center;verticalAlign=middle;resizable=0;points=[];autosize=1;strokeColor=none;fillColor=none;fontFamily=Helvetica;fontSize=11;fontColor=default;labelBackgroundColor=default;" vertex="1" parent="WIyWlLk6GJQsqaUBKTNV-1">
          <mxGeometry x="250" y="990" width="30" height="30" as="geometry" />
        </mxCell>
        <mxCell id="aJ0csZWAjKoqi-2T0C5s-98" value="1" style="text;html=1;align=center;verticalAlign=middle;resizable=0;points=[];autosize=1;strokeColor=none;fillColor=none;fontFamily=Helvetica;fontSize=11;fontColor=default;labelBackgroundColor=default;" vertex="1" parent="WIyWlLk6GJQsqaUBKTNV-1">
          <mxGeometry x="430" y="990" width="30" height="30" as="geometry" />
        </mxCell>
        <mxCell id="aJ0csZWAjKoqi-2T0C5s-100" style="edgeStyle=none;shape=connector;rounded=0;orthogonalLoop=1;jettySize=auto;html=1;entryX=0;entryY=0.75;entryDx=0;entryDy=0;strokeColor=default;align=center;verticalAlign=middle;fontFamily=Helvetica;fontSize=11;fontColor=default;labelBackgroundColor=default;endArrow=none;endFill=0;" edge="1" parent="WIyWlLk6GJQsqaUBKTNV-1" source="aJ0csZWAjKoqi-2T0C5s-99" target="aJ0csZWAjKoqi-2T0C5s-93">
          <mxGeometry relative="1" as="geometry" />
        </mxCell>
        <mxCell id="aJ0csZWAjKoqi-2T0C5s-99" value="idDepartamento" style="ellipse;whiteSpace=wrap;html=1;fontStyle=4" vertex="1" parent="WIyWlLk6GJQsqaUBKTNV-1">
          <mxGeometry x="-100" y="1080" width="110" height="80" as="geometry" />
        </mxCell>
        <mxCell id="aJ0csZWAjKoqi-2T0C5s-102" style="edgeStyle=none;shape=connector;rounded=0;orthogonalLoop=1;jettySize=auto;html=1;entryX=0;entryY=1;entryDx=0;entryDy=0;strokeColor=default;align=center;verticalAlign=middle;fontFamily=Helvetica;fontSize=11;fontColor=default;labelBackgroundColor=default;endArrow=none;endFill=0;" edge="1" parent="WIyWlLk6GJQsqaUBKTNV-1" source="aJ0csZWAjKoqi-2T0C5s-101" target="aJ0csZWAjKoqi-2T0C5s-93">
          <mxGeometry relative="1" as="geometry" />
        </mxCell>
        <mxCell id="aJ0csZWAjKoqi-2T0C5s-101" value="nome" style="ellipse;whiteSpace=wrap;html=1;fontStyle=0" vertex="1" parent="WIyWlLk6GJQsqaUBKTNV-1">
          <mxGeometry y="1139.28" width="60" height="50" as="geometry" />
        </mxCell>
      </root>
    </mxGraphModel>
  </diagram>
</mxfile>
